<?xml version="1.0" encoding="UTF-8"?>
<!-- Generator: Adobe Illustrator 15.0.0, SVG Export Plug-In . SVG Version: 6.00 Build 0)  -->
<!DOCTYPE svg PUBLIC "-//W3C//DTD SVG 1.1//EN" "http://www.w3.org/Graphics/SVG/1.1/DTD/svg11.dtd">
<svg version="1.1" id="图层_1" xmlns="http://www.w3.org/2000/svg" xmlns:xlink="http://www.w3.org/1999/xlink" x="0px" y="0px" width="54.598px" height="54.598px" viewBox="0 0 54.598 54.598" enable-background="new 0 0 54.598 54.598" xml:space="preserve">
<g>
	<path fill="#79BD28" d="M51.196,0H3.4C1.522,0,0,1.522,0,3.4v47.796c0,1.879,1.522,3.401,3.4,3.401   c0.053,0,0.104-0.001,0.156-0.003l47.796,0.003c1.806-0.083,3.245-1.572,3.245-3.398V3.4C54.598,1.522,53.075,0,51.196,0z    M37.681,3.869c2.063-2.035,5.699-2.831,8.146-1.425c2.092,1.202,6.17,5.905,6.17,5.905c2.922,3.173-1.265,5.611-1.265,5.611   l-18.29,11.773l-5.146-7.96L37.681,3.869z M2.32,8.984c1.194-2.104,5.868-6.208,5.868-6.208c3.154-2.938,5.579,1.274,5.579,1.274   L25.471,22.45l-7.913,5.178L3.736,17.18C1.713,15.104,0.922,11.446,2.32,8.984z M16.967,51.071   c-2.063,2.036-5.699,2.831-8.146,1.425C6.73,51.294,2.65,46.592,2.65,46.592c-2.92-3.174,1.267-5.612,1.267-5.612l18.29-11.773   l5.146,7.96L16.967,51.071z M52.387,45.955c-1.194,2.104-5.869,6.209-5.869,6.209c-3.153,2.938-5.578-1.275-5.578-1.275   L29.236,32.489l7.913-5.178L50.97,37.76C52.995,39.836,53.785,43.494,52.387,45.955z"/>
</g>
<circle display="none" fill="none" stroke="#E60012" stroke-width="0.25" stroke-miterlimit="10" cx="677.424" cy="787.799" r="32.661"/>
</svg>